<svg width="16" height="16" viewBox="0 0 16 16" xmlns="http://www.w3.org/2000/svg">
  <path d="M6.31719 10.1866C6.19052 10.1866 6.06385 10.1399 5.96385 10.0399C5.41719 9.49328 5.11719 8.76661 5.11719 7.99995C5.11719 6.40661 6.41052 5.11328 8.00385 5.11328C8.77052 5.11328 9.49719 5.41328 10.0439 5.95995C10.1372 6.05328 10.1905 6.17995 10.1905 6.31328C10.1905 6.44661 10.1372 6.57328 10.0439 6.66661L6.67052 10.0399C6.57052 10.1399 6.44385 10.1866 6.31719 10.1866ZM8.00385 6.11328C6.96385 6.11328 6.11719 6.95995 6.11719 7.99995C6.11719 8.33328 6.20385 8.65328 6.36385 8.93328L8.93719 6.35995C8.65719 6.19995 8.33719 6.11328 8.00385 6.11328Z"/>
  <path d="M3.73323 12.3397C3.6199 12.3397 3.4999 12.2997 3.40656 12.2197C2.69323 11.613 2.05323 10.8663 1.50656 9.99966C0.799896 8.89966 0.799896 7.10633 1.50656 5.99966C3.13323 3.45299 5.4999 1.98633 7.9999 1.98633C9.46656 1.98633 10.9132 2.49299 12.1799 3.44633C12.3999 3.61299 12.4466 3.92633 12.2799 4.14633C12.1132 4.36633 11.7999 4.41299 11.5799 4.24633C10.4866 3.41966 9.24656 2.98633 7.9999 2.98633C5.84656 2.98633 3.78656 4.27966 2.34656 6.53966C1.84656 7.31966 1.84656 8.67966 2.34656 9.45966C2.84656 10.2397 3.4199 10.913 4.05323 11.4597C4.2599 11.6397 4.28656 11.953 4.10656 12.1663C4.01323 12.2797 3.87323 12.3397 3.73323 12.3397Z" />
  <path d="M8.00167 14.0137C7.115 14.0137 6.24834 13.8337 5.415 13.4803C5.16167 13.3737 5.04167 13.0803 5.14834 12.827C5.255 12.5737 5.54834 12.4537 5.80167 12.5603C6.50834 12.8603 7.24834 13.0137 7.995 13.0137C10.1483 13.0137 12.2083 11.7203 13.6483 9.46032C14.1483 8.68032 14.1483 7.32032 13.6483 6.54032C13.4417 6.21366 13.215 5.90032 12.975 5.60699C12.8017 5.39366 12.835 5.08032 13.0483 4.90032C13.2617 4.72699 13.575 4.75366 13.755 4.97366C14.015 5.29366 14.2683 5.64032 14.495 6.00032C15.2017 7.10032 15.2017 8.89366 14.495 10.0003C12.8683 12.547 10.5017 14.0137 8.00167 14.0137Z"/>
  <path d="M8.46363 10.8469C8.2303 10.8469 8.01697 10.6802 7.9703 10.4402C7.91697 10.1669 8.09697 9.9069 8.3703 9.86023C9.10363 9.7269 9.71697 9.11356 9.8503 8.38023C9.90363 8.1069 10.1636 7.93356 10.437 7.98023C10.7103 8.03356 10.8903 8.29356 10.837 8.5669C10.6236 9.72023 9.70363 10.6336 8.55697 10.8469C8.52363 10.8402 8.49697 10.8469 8.46363 10.8469Z" />
  <path d="M1.33427 15.1668C1.2076 15.1668 1.08094 15.1201 0.980938 15.0201C0.787604 14.8268 0.787604 14.5068 0.980938 14.3135L5.96094 9.33348C6.15427 9.14014 6.47427 9.14014 6.6676 9.33348C6.86094 9.52681 6.86094 9.84681 6.6676 10.0401L1.6876 15.0201C1.5876 15.1201 1.46094 15.1668 1.33427 15.1668Z" />
  <path d="M9.68583 6.81329C9.55917 6.81329 9.4325 6.76663 9.3325 6.66663C9.13917 6.47329 9.13917 6.15329 9.3325 5.95996L14.3125 0.979961C14.5058 0.786628 14.8258 0.786628 15.0192 0.979961C15.2125 1.17329 15.2125 1.49329 15.0192 1.68663L10.0392 6.66663C9.93917 6.76663 9.8125 6.81329 9.68583 6.81329Z" />
</svg>
